<mxfile host="app.diagrams.net" agent="Mozilla/5.0 (Windows NT 10.0; Win64; x64) AppleWebKit/537.36 (KHTML, like Gecko) Chrome/130.0.0.0 Safari/537.36" version="24.7.17">
  <diagram name="第 1 页" id="Am-hu6-7cuVb2y5IluUW">
    <mxGraphModel dx="750" dy="613" grid="1" gridSize="10" guides="1" tooltips="1" connect="1" arrows="1" fold="1" page="1" pageScale="1" pageWidth="827" pageHeight="1169" math="0" shadow="0">
      <root>
        <mxCell id="0" />
        <mxCell id="1" parent="0" />
        <mxCell id="1WfHpJmpJzPJUs5iyAej-1" value="" style="endArrow=classic;html=1;rounded=0;" edge="1" parent="1">
          <mxGeometry width="50" height="50" relative="1" as="geometry">
            <mxPoint x="280" y="500" as="sourcePoint" />
            <mxPoint x="420" y="500" as="targetPoint" />
          </mxGeometry>
        </mxCell>
        <mxCell id="1WfHpJmpJzPJUs5iyAej-2" value="" style="endArrow=classic;html=1;rounded=0;" edge="1" parent="1">
          <mxGeometry width="50" height="50" relative="1" as="geometry">
            <mxPoint x="280" y="500" as="sourcePoint" />
            <mxPoint x="280" y="590" as="targetPoint" />
          </mxGeometry>
        </mxCell>
        <mxCell id="1WfHpJmpJzPJUs5iyAej-3" value="" style="endArrow=none;html=1;rounded=0;" edge="1" parent="1">
          <mxGeometry width="50" height="50" relative="1" as="geometry">
            <mxPoint x="280" y="560" as="sourcePoint" />
            <mxPoint x="390" y="560" as="targetPoint" />
          </mxGeometry>
        </mxCell>
        <mxCell id="1WfHpJmpJzPJUs5iyAej-4" value="" style="endArrow=none;html=1;rounded=0;" edge="1" parent="1">
          <mxGeometry width="50" height="50" relative="1" as="geometry">
            <mxPoint x="390" y="560" as="sourcePoint" />
            <mxPoint x="390" y="500" as="targetPoint" />
          </mxGeometry>
        </mxCell>
        <mxCell id="1WfHpJmpJzPJUs5iyAej-6" value="" style="endArrow=none;dashed=1;html=1;rounded=0;" edge="1" parent="1">
          <mxGeometry width="50" height="50" relative="1" as="geometry">
            <mxPoint x="350" y="580" as="sourcePoint" />
            <mxPoint x="350" y="480" as="targetPoint" />
          </mxGeometry>
        </mxCell>
        <mxCell id="1WfHpJmpJzPJUs5iyAej-7" value="" style="endArrow=none;dashed=1;html=1;rounded=0;" edge="1" parent="1">
          <mxGeometry width="50" height="50" relative="1" as="geometry">
            <mxPoint x="260" y="540" as="sourcePoint" />
            <mxPoint x="420" y="540" as="targetPoint" />
          </mxGeometry>
        </mxCell>
        <mxCell id="1WfHpJmpJzPJUs5iyAej-8" value="（u&lt;sub&gt;0&lt;/sub&gt;,v&lt;sub&gt;0&lt;/sub&gt;）" style="text;html=1;align=center;verticalAlign=middle;resizable=0;points=[];autosize=1;strokeColor=none;fillColor=none;" vertex="1" parent="1">
          <mxGeometry x="295" y="510" width="70" height="30" as="geometry" />
        </mxCell>
        <mxCell id="1WfHpJmpJzPJUs5iyAej-9" value="" style="endArrow=classic;html=1;rounded=0;" edge="1" parent="1">
          <mxGeometry width="50" height="50" relative="1" as="geometry">
            <mxPoint x="310" y="742.09" as="sourcePoint" />
            <mxPoint x="450" y="742.09" as="targetPoint" />
          </mxGeometry>
        </mxCell>
        <mxCell id="1WfHpJmpJzPJUs5iyAej-10" value="" style="endArrow=classic;html=1;rounded=0;" edge="1" parent="1">
          <mxGeometry width="50" height="50" relative="1" as="geometry">
            <mxPoint x="310" y="742.09" as="sourcePoint" />
            <mxPoint x="310" y="649.9969767441861" as="targetPoint" />
          </mxGeometry>
        </mxCell>
        <mxCell id="1WfHpJmpJzPJUs5iyAej-11" value="" style="endArrow=none;html=1;rounded=0;" edge="1" parent="1">
          <mxGeometry width="50" height="50" relative="1" as="geometry">
            <mxPoint x="310" y="680" as="sourcePoint" />
            <mxPoint x="420" y="680" as="targetPoint" />
          </mxGeometry>
        </mxCell>
        <mxCell id="1WfHpJmpJzPJUs5iyAej-12" value="" style="endArrow=none;html=1;rounded=0;" edge="1" parent="1">
          <mxGeometry width="50" height="50" relative="1" as="geometry">
            <mxPoint x="420" y="742.09" as="sourcePoint" />
            <mxPoint x="420" y="680" as="targetPoint" />
          </mxGeometry>
        </mxCell>
        <mxCell id="1WfHpJmpJzPJUs5iyAej-13" value="" style="endArrow=none;dashed=1;html=1;rounded=0;" edge="1" parent="1">
          <mxGeometry width="50" height="50" relative="1" as="geometry">
            <mxPoint x="365" y="770" as="sourcePoint" />
            <mxPoint x="365" y="670" as="targetPoint" />
          </mxGeometry>
        </mxCell>
        <mxCell id="1WfHpJmpJzPJUs5iyAej-14" value="" style="endArrow=none;dashed=1;html=1;rounded=0;" edge="1" parent="1">
          <mxGeometry width="50" height="50" relative="1" as="geometry">
            <mxPoint x="295" y="710" as="sourcePoint" />
            <mxPoint x="455" y="710" as="targetPoint" />
          </mxGeometry>
        </mxCell>
        <mxCell id="1WfHpJmpJzPJUs5iyAej-15" value="O&#39;" style="text;html=1;align=center;verticalAlign=middle;resizable=0;points=[];autosize=1;strokeColor=none;fillColor=none;" vertex="1" parent="1">
          <mxGeometry x="355" y="703" width="40" height="30" as="geometry" />
        </mxCell>
        <mxCell id="1WfHpJmpJzPJUs5iyAej-17" value="V" style="text;html=1;align=center;verticalAlign=middle;resizable=0;points=[];autosize=1;strokeColor=none;fillColor=none;" vertex="1" parent="1">
          <mxGeometry x="285" y="568" width="30" height="30" as="geometry" />
        </mxCell>
        <mxCell id="1WfHpJmpJzPJUs5iyAej-18" value="u" style="text;html=1;align=center;verticalAlign=middle;resizable=0;points=[];autosize=1;strokeColor=none;fillColor=none;" vertex="1" parent="1">
          <mxGeometry x="405" y="498" width="30" height="30" as="geometry" />
        </mxCell>
        <mxCell id="1WfHpJmpJzPJUs5iyAej-19" value="" style="endArrow=classic;html=1;rounded=0;" edge="1" parent="1">
          <mxGeometry width="50" height="50" relative="1" as="geometry">
            <mxPoint x="265" y="790" as="sourcePoint" />
            <mxPoint x="355" y="790" as="targetPoint" />
          </mxGeometry>
        </mxCell>
        <mxCell id="1WfHpJmpJzPJUs5iyAej-20" value="" style="endArrow=classic;html=1;rounded=0;" edge="1" parent="1">
          <mxGeometry width="50" height="50" relative="1" as="geometry">
            <mxPoint x="270" y="800" as="sourcePoint" />
            <mxPoint x="270" y="700" as="targetPoint" />
          </mxGeometry>
        </mxCell>
        <mxCell id="1WfHpJmpJzPJUs5iyAej-21" value="" style="endArrow=none;dashed=1;html=1;rounded=0;" edge="1" parent="1">
          <mxGeometry width="50" height="50" relative="1" as="geometry">
            <mxPoint x="270" y="790" as="sourcePoint" />
            <mxPoint x="450" y="640" as="targetPoint" />
          </mxGeometry>
        </mxCell>
        <mxCell id="1WfHpJmpJzPJUs5iyAej-22" value="o" style="text;html=1;align=center;verticalAlign=middle;resizable=0;points=[];autosize=1;strokeColor=none;fillColor=none;" vertex="1" parent="1">
          <mxGeometry x="262" y="780" width="30" height="30" as="geometry" />
        </mxCell>
        <mxCell id="1WfHpJmpJzPJUs5iyAej-23" value="Y&lt;sub&gt;c&lt;/sub&gt;" style="text;html=1;align=center;verticalAlign=middle;resizable=0;points=[];autosize=1;strokeColor=none;fillColor=none;" vertex="1" parent="1">
          <mxGeometry x="260" y="688" width="40" height="30" as="geometry" />
        </mxCell>
        <mxCell id="1WfHpJmpJzPJUs5iyAej-25" value="X&lt;sub&gt;c&lt;/sub&gt;" style="text;html=1;align=center;verticalAlign=middle;resizable=0;points=[];autosize=1;strokeColor=none;fillColor=none;" vertex="1" parent="1">
          <mxGeometry x="340" y="788" width="40" height="30" as="geometry" />
        </mxCell>
        <mxCell id="1WfHpJmpJzPJUs5iyAej-27" value="Z&lt;sub&gt;c&lt;/sub&gt;" style="text;html=1;align=center;verticalAlign=middle;resizable=0;points=[];autosize=1;strokeColor=none;fillColor=none;" vertex="1" parent="1">
          <mxGeometry x="440" y="638" width="40" height="30" as="geometry" />
        </mxCell>
        <mxCell id="1WfHpJmpJzPJUs5iyAej-28" value="u" style="text;html=1;align=center;verticalAlign=middle;resizable=0;points=[];autosize=1;strokeColor=none;fillColor=none;" vertex="1" parent="1">
          <mxGeometry x="420" y="738" width="30" height="30" as="geometry" />
        </mxCell>
        <mxCell id="1WfHpJmpJzPJUs5iyAej-29" value="v" style="text;html=1;align=center;verticalAlign=middle;resizable=0;points=[];autosize=1;strokeColor=none;fillColor=none;" vertex="1" parent="1">
          <mxGeometry x="283" y="641" width="30" height="30" as="geometry" />
        </mxCell>
        <mxCell id="1WfHpJmpJzPJUs5iyAej-30" value="" style="endArrow=classic;html=1;rounded=0;" edge="1" parent="1">
          <mxGeometry width="50" height="50" relative="1" as="geometry">
            <mxPoint x="280" y="940" as="sourcePoint" />
            <mxPoint x="280" y="860" as="targetPoint" />
          </mxGeometry>
        </mxCell>
        <mxCell id="1WfHpJmpJzPJUs5iyAej-31" value="" style="endArrow=classic;html=1;rounded=0;" edge="1" parent="1">
          <mxGeometry width="50" height="50" relative="1" as="geometry">
            <mxPoint x="280" y="940" as="sourcePoint" />
            <mxPoint x="390" y="940" as="targetPoint" />
          </mxGeometry>
        </mxCell>
        <mxCell id="1WfHpJmpJzPJUs5iyAej-32" value="" style="endArrow=classic;html=1;rounded=0;" edge="1" parent="1">
          <mxGeometry width="50" height="50" relative="1" as="geometry">
            <mxPoint x="240" y="908" as="sourcePoint" />
            <mxPoint x="340" y="988" as="targetPoint" />
          </mxGeometry>
        </mxCell>
        <mxCell id="1WfHpJmpJzPJUs5iyAej-33" value="O&lt;div&gt;&lt;br&gt;&lt;/div&gt;" style="text;html=1;align=center;verticalAlign=middle;resizable=0;points=[];autosize=1;strokeColor=none;fillColor=none;" vertex="1" parent="1">
          <mxGeometry x="260" y="933" width="30" height="40" as="geometry" />
        </mxCell>
        <mxCell id="1WfHpJmpJzPJUs5iyAej-34" value="X&lt;sub&gt;w&lt;/sub&gt;" style="text;html=1;align=center;verticalAlign=middle;resizable=0;points=[];autosize=1;strokeColor=none;fillColor=none;" vertex="1" parent="1">
          <mxGeometry x="320" y="958" width="40" height="30" as="geometry" />
        </mxCell>
        <mxCell id="1WfHpJmpJzPJUs5iyAej-35" value="Z&lt;sub&gt;w&lt;/sub&gt;" style="text;html=1;align=center;verticalAlign=middle;resizable=0;points=[];autosize=1;strokeColor=none;fillColor=none;" vertex="1" parent="1">
          <mxGeometry x="374" y="933" width="40" height="30" as="geometry" />
        </mxCell>
        <mxCell id="1WfHpJmpJzPJUs5iyAej-36" value="Y&lt;sub&gt;w&lt;/sub&gt;" style="text;html=1;align=center;verticalAlign=middle;resizable=0;points=[];autosize=1;strokeColor=none;fillColor=none;" vertex="1" parent="1">
          <mxGeometry x="246" y="853" width="40" height="30" as="geometry" />
        </mxCell>
        <mxCell id="1WfHpJmpJzPJUs5iyAej-37" value="" style="shape=cube;whiteSpace=wrap;html=1;boundedLbl=1;backgroundOutline=1;darkOpacity=0.05;darkOpacity2=0.1;rotation=-135;" vertex="1" parent="1">
          <mxGeometry x="221.46" y="1046.46" width="70" height="70" as="geometry" />
        </mxCell>
        <mxCell id="1WfHpJmpJzPJUs5iyAej-38" value="" style="endArrow=classic;html=1;rounded=0;" edge="1" parent="1">
          <mxGeometry width="50" height="50" relative="1" as="geometry">
            <mxPoint x="220" y="1220" as="sourcePoint" />
            <mxPoint x="240" y="1280" as="targetPoint" />
          </mxGeometry>
        </mxCell>
        <mxCell id="1WfHpJmpJzPJUs5iyAej-39" value="" style="endArrow=classic;html=1;rounded=0;" edge="1" parent="1">
          <mxGeometry width="50" height="50" relative="1" as="geometry">
            <mxPoint x="220" y="1220" as="sourcePoint" />
            <mxPoint x="220" y="1160" as="targetPoint" />
          </mxGeometry>
        </mxCell>
        <mxCell id="1WfHpJmpJzPJUs5iyAej-40" value="" style="endArrow=classic;html=1;rounded=0;" edge="1" parent="1">
          <mxGeometry width="50" height="50" relative="1" as="geometry">
            <mxPoint x="220" y="1220" as="sourcePoint" />
            <mxPoint x="290" y="1210" as="targetPoint" />
          </mxGeometry>
        </mxCell>
        <mxCell id="1WfHpJmpJzPJUs5iyAej-41" value="" style="endArrow=none;html=1;rounded=0;" edge="1" parent="1">
          <mxGeometry width="50" height="50" relative="1" as="geometry">
            <mxPoint x="220" y="1220" as="sourcePoint" />
            <mxPoint x="440" y="1190" as="targetPoint" />
          </mxGeometry>
        </mxCell>
        <mxCell id="1WfHpJmpJzPJUs5iyAej-42" value="" style="endArrow=none;dashed=1;html=1;rounded=0;" edge="1" parent="1">
          <mxGeometry width="50" height="50" relative="1" as="geometry">
            <mxPoint x="230" y="1250" as="sourcePoint" />
            <mxPoint x="440" y="1220" as="targetPoint" />
          </mxGeometry>
        </mxCell>
        <mxCell id="1WfHpJmpJzPJUs5iyAej-44" value="" style="endArrow=none;dashed=1;html=1;rounded=0;" edge="1" parent="1">
          <mxGeometry width="50" height="50" relative="1" as="geometry">
            <mxPoint x="440" y="1220" as="sourcePoint" />
            <mxPoint x="430" y="1190" as="targetPoint" />
          </mxGeometry>
        </mxCell>
        <mxCell id="1WfHpJmpJzPJUs5iyAej-47" value="" style="shape=dataStorage;whiteSpace=wrap;html=1;fixedSize=1;rotation=-15;" vertex="1" parent="1">
          <mxGeometry x="414" y="1070" width="80" height="50" as="geometry" />
        </mxCell>
        <mxCell id="1WfHpJmpJzPJUs5iyAej-48" value="" style="shape=cube;whiteSpace=wrap;html=1;boundedLbl=1;backgroundOutline=1;darkOpacity=0.05;darkOpacity2=0.1;rotation=-195;" vertex="1" parent="1">
          <mxGeometry x="462.11" y="1032.02" width="102.59" height="93.96" as="geometry" />
        </mxCell>
        <mxCell id="1WfHpJmpJzPJUs5iyAej-49" value="" style="endArrow=none;dashed=1;html=1;rounded=0;" edge="1" parent="1">
          <mxGeometry width="50" height="50" relative="1" as="geometry">
            <mxPoint x="440" y="1220" as="sourcePoint" />
            <mxPoint x="430" y="1110" as="targetPoint" />
          </mxGeometry>
        </mxCell>
        <mxCell id="1WfHpJmpJzPJUs5iyAej-50" value="" style="endArrow=classic;html=1;rounded=0;" edge="1" parent="1">
          <mxGeometry width="50" height="50" relative="1" as="geometry">
            <mxPoint x="430" y="1110" as="sourcePoint" />
            <mxPoint x="450" y="1160" as="targetPoint" />
          </mxGeometry>
        </mxCell>
        <mxCell id="1WfHpJmpJzPJUs5iyAej-51" value="" style="endArrow=classic;html=1;rounded=0;" edge="1" parent="1">
          <mxGeometry width="50" height="50" relative="1" as="geometry">
            <mxPoint x="430" y="1110" as="sourcePoint" />
            <mxPoint x="450" y="1050" as="targetPoint" />
          </mxGeometry>
        </mxCell>
        <mxCell id="1WfHpJmpJzPJUs5iyAej-53" value="" style="endArrow=none;html=1;rounded=0;entryX=0;entryY=0;entryDx=20;entryDy=70;entryPerimeter=0;" edge="1" parent="1" target="1WfHpJmpJzPJUs5iyAej-37">
          <mxGeometry width="50" height="50" relative="1" as="geometry">
            <mxPoint x="220" y="1220" as="sourcePoint" />
            <mxPoint x="270" y="1170" as="targetPoint" />
          </mxGeometry>
        </mxCell>
        <mxCell id="1WfHpJmpJzPJUs5iyAej-59" value="" style="endArrow=none;html=1;rounded=0;" edge="1" parent="1">
          <mxGeometry width="50" height="50" relative="1" as="geometry">
            <mxPoint x="290" y="1070" as="sourcePoint" />
            <mxPoint x="430" y="1110" as="targetPoint" />
          </mxGeometry>
        </mxCell>
        <mxCell id="1WfHpJmpJzPJUs5iyAej-60" value="" style="endArrow=classic;html=1;rounded=0;" edge="1" parent="1">
          <mxGeometry width="50" height="50" relative="1" as="geometry">
            <mxPoint x="430" y="1110" as="sourcePoint" />
            <mxPoint x="330" y="1130" as="targetPoint" />
          </mxGeometry>
        </mxCell>
        <mxCell id="1WfHpJmpJzPJUs5iyAej-62" value="" style="shape=parallelogram;perimeter=parallelogramPerimeter;whiteSpace=wrap;html=1;fixedSize=1;rotation=-61;size=58.809999999999945;" vertex="1" parent="1">
          <mxGeometry x="313" y="1080" width="118.63" height="55.51" as="geometry" />
        </mxCell>
        <mxCell id="1WfHpJmpJzPJUs5iyAej-63" value="" style="endArrow=none;html=1;rounded=0;" edge="1" parent="1" source="1WfHpJmpJzPJUs5iyAej-90">
          <mxGeometry width="50" height="50" relative="1" as="geometry">
            <mxPoint x="430" y="1110" as="sourcePoint" />
            <mxPoint x="360" y="1090" as="targetPoint" />
          </mxGeometry>
        </mxCell>
        <mxCell id="1WfHpJmpJzPJUs5iyAej-64" value="" style="endArrow=none;html=1;rounded=0;" edge="1" parent="1" source="1WfHpJmpJzPJUs5iyAej-92">
          <mxGeometry width="50" height="50" relative="1" as="geometry">
            <mxPoint x="380" y="1120" as="sourcePoint" />
            <mxPoint x="430" y="1110" as="targetPoint" />
          </mxGeometry>
        </mxCell>
        <mxCell id="1WfHpJmpJzPJUs5iyAej-65" value="" style="endArrow=none;html=1;rounded=0;" edge="1" parent="1">
          <mxGeometry width="50" height="50" relative="1" as="geometry">
            <mxPoint x="380" y="1120" as="sourcePoint" />
            <mxPoint x="374" y="1100.51" as="targetPoint" />
          </mxGeometry>
        </mxCell>
        <mxCell id="1WfHpJmpJzPJUs5iyAej-67" value="" style="endArrow=none;html=1;rounded=0;" edge="1" parent="1">
          <mxGeometry width="50" height="50" relative="1" as="geometry">
            <mxPoint x="370" y="1140" as="sourcePoint" />
            <mxPoint x="380" y="1120" as="targetPoint" />
          </mxGeometry>
        </mxCell>
        <mxCell id="1WfHpJmpJzPJUs5iyAej-69" value="" style="endArrow=none;html=1;rounded=0;" edge="1" parent="1">
          <mxGeometry width="50" height="50" relative="1" as="geometry">
            <mxPoint x="380" y="1110" as="sourcePoint" />
            <mxPoint x="380" y="1110" as="targetPoint" />
          </mxGeometry>
        </mxCell>
        <mxCell id="1WfHpJmpJzPJUs5iyAej-73" value="" style="endArrow=classic;html=1;rounded=0;exitX=0.5;exitY=0;exitDx=0;exitDy=0;" edge="1" parent="1" source="1WfHpJmpJzPJUs5iyAej-62">
          <mxGeometry width="50" height="50" relative="1" as="geometry">
            <mxPoint x="360" y="1160" as="sourcePoint" />
            <mxPoint x="390" y="1020" as="targetPoint" />
          </mxGeometry>
        </mxCell>
        <mxCell id="1WfHpJmpJzPJUs5iyAej-75" value="" style="endArrow=classic;html=1;rounded=0;exitX=0.5;exitY=0;exitDx=0;exitDy=0;" edge="1" parent="1" source="1WfHpJmpJzPJUs5iyAej-62">
          <mxGeometry width="50" height="50" relative="1" as="geometry">
            <mxPoint x="360" y="1160" as="sourcePoint" />
            <mxPoint x="372" y="1190" as="targetPoint" />
          </mxGeometry>
        </mxCell>
        <mxCell id="1WfHpJmpJzPJUs5iyAej-80" value="" style="endArrow=classic;startArrow=classic;html=1;rounded=0;" edge="1" parent="1">
          <mxGeometry width="50" height="50" relative="1" as="geometry">
            <mxPoint x="370" y="1150" as="sourcePoint" />
            <mxPoint x="440" y="1140" as="targetPoint" />
          </mxGeometry>
        </mxCell>
        <mxCell id="1WfHpJmpJzPJUs5iyAej-81" value="P" style="text;html=1;align=center;verticalAlign=middle;resizable=0;points=[];autosize=1;strokeColor=none;fillColor=none;" vertex="1" parent="1">
          <mxGeometry x="285" y="1048" width="30" height="30" as="geometry" />
        </mxCell>
        <mxCell id="1WfHpJmpJzPJUs5iyAej-82" value="u" style="text;html=1;align=center;verticalAlign=middle;resizable=0;points=[];autosize=1;strokeColor=none;fillColor=none;" vertex="1" parent="1">
          <mxGeometry x="362" y="1008" width="30" height="30" as="geometry" />
        </mxCell>
        <mxCell id="1WfHpJmpJzPJUs5iyAej-83" value="v" style="text;html=1;align=center;verticalAlign=middle;resizable=0;points=[];autosize=1;strokeColor=none;fillColor=none;" vertex="1" parent="1">
          <mxGeometry x="365" y="1168" width="30" height="30" as="geometry" />
        </mxCell>
        <mxCell id="1WfHpJmpJzPJUs5iyAej-84" value="f" style="text;html=1;align=center;verticalAlign=middle;resizable=0;points=[];autosize=1;strokeColor=none;fillColor=none;" vertex="1" parent="1">
          <mxGeometry x="385" y="1138" width="30" height="30" as="geometry" />
        </mxCell>
        <mxCell id="1WfHpJmpJzPJUs5iyAej-85" value="Z&lt;sub&gt;c&lt;/sub&gt;" style="text;html=1;align=center;verticalAlign=middle;resizable=0;points=[];autosize=1;strokeColor=none;fillColor=none;" vertex="1" parent="1">
          <mxGeometry x="300" y="1108" width="40" height="30" as="geometry" />
        </mxCell>
        <mxCell id="1WfHpJmpJzPJUs5iyAej-86" value="O&lt;sub&gt;c&lt;/sub&gt;" style="text;html=1;align=center;verticalAlign=middle;resizable=0;points=[];autosize=1;strokeColor=none;fillColor=none;" vertex="1" parent="1">
          <mxGeometry x="422.11" y="1095.98" width="40" height="30" as="geometry" />
        </mxCell>
        <mxCell id="1WfHpJmpJzPJUs5iyAej-87" value="Y&lt;sub&gt;c&lt;/sub&gt;" style="text;html=1;align=center;verticalAlign=middle;resizable=0;points=[];autosize=1;strokeColor=none;fillColor=none;" vertex="1" parent="1">
          <mxGeometry x="440" y="1138" width="40" height="30" as="geometry" />
        </mxCell>
        <mxCell id="1WfHpJmpJzPJUs5iyAej-88" value="X&lt;sub&gt;c&lt;/sub&gt;" style="text;html=1;align=center;verticalAlign=middle;resizable=0;points=[];autosize=1;strokeColor=none;fillColor=none;" vertex="1" parent="1">
          <mxGeometry x="414" y="1038" width="40" height="30" as="geometry" />
        </mxCell>
        <mxCell id="1WfHpJmpJzPJUs5iyAej-91" value="" style="endArrow=none;html=1;rounded=0;" edge="1" parent="1" target="1WfHpJmpJzPJUs5iyAej-90">
          <mxGeometry width="50" height="50" relative="1" as="geometry">
            <mxPoint x="430" y="1110" as="sourcePoint" />
            <mxPoint x="360" y="1090" as="targetPoint" />
          </mxGeometry>
        </mxCell>
        <mxCell id="1WfHpJmpJzPJUs5iyAej-90" value="" style="shape=waypoint;sketch=0;fillStyle=solid;size=6;pointerEvents=1;points=[];fillColor=none;resizable=0;rotatable=0;perimeter=centerPerimeter;snapToPoint=1;" vertex="1" parent="1">
          <mxGeometry x="350" y="1080" width="20" height="20" as="geometry" />
        </mxCell>
        <mxCell id="1WfHpJmpJzPJUs5iyAej-92" value="" style="shape=waypoint;sketch=0;fillStyle=solid;size=6;pointerEvents=1;points=[];fillColor=none;resizable=0;rotatable=0;perimeter=centerPerimeter;snapToPoint=1;" vertex="1" parent="1">
          <mxGeometry x="370" y="1110" width="20" height="20" as="geometry" />
        </mxCell>
        <mxCell id="1WfHpJmpJzPJUs5iyAej-93" value="" style="endArrow=classic;html=1;rounded=0;entryX=0.433;entryY=0.157;entryDx=0;entryDy=0;entryPerimeter=0;" edge="1" parent="1">
          <mxGeometry width="50" height="50" relative="1" as="geometry">
            <mxPoint x="328" y="1025" as="sourcePoint" />
            <mxPoint x="358" y="1085" as="targetPoint" />
          </mxGeometry>
        </mxCell>
        <mxCell id="1WfHpJmpJzPJUs5iyAej-94" value="p(u,v)" style="text;html=1;align=center;verticalAlign=middle;resizable=0;points=[];autosize=1;strokeColor=none;fillColor=none;" vertex="1" parent="1">
          <mxGeometry x="285" y="1008" width="50" height="30" as="geometry" />
        </mxCell>
        <mxCell id="1WfHpJmpJzPJUs5iyAej-95" value="摄像机" style="text;html=1;align=center;verticalAlign=middle;resizable=0;points=[];autosize=1;strokeColor=none;fillColor=none;rotation=-15;" vertex="1" parent="1">
          <mxGeometry x="504.7" y="1120" width="60" height="30" as="geometry" />
        </mxCell>
        <mxCell id="1WfHpJmpJzPJUs5iyAej-96" value="T&lt;sub&gt;x&lt;/sub&gt;" style="text;html=1;align=center;verticalAlign=middle;resizable=0;points=[];autosize=1;strokeColor=none;fillColor=none;" vertex="1" parent="1">
          <mxGeometry x="405" y="1190" width="40" height="30" as="geometry" />
        </mxCell>
        <mxCell id="1WfHpJmpJzPJUs5iyAej-98" value="T&lt;sub&gt;y&lt;/sub&gt;" style="text;html=1;align=center;verticalAlign=middle;resizable=0;points=[];autosize=1;strokeColor=none;fillColor=none;" vertex="1" parent="1">
          <mxGeometry x="315" y="1233" width="40" height="30" as="geometry" />
        </mxCell>
        <mxCell id="1WfHpJmpJzPJUs5iyAej-99" value="T&lt;sub&gt;z&lt;/sub&gt;" style="text;html=1;align=center;verticalAlign=middle;resizable=0;points=[];autosize=1;strokeColor=none;fillColor=none;" vertex="1" parent="1">
          <mxGeometry x="405" y="1150" width="40" height="30" as="geometry" />
        </mxCell>
        <mxCell id="1WfHpJmpJzPJUs5iyAej-100" value="Y&lt;sub&gt;w&lt;/sub&gt;" style="text;html=1;align=center;verticalAlign=middle;resizable=0;points=[];autosize=1;strokeColor=none;fillColor=none;" vertex="1" parent="1">
          <mxGeometry x="240" y="1188" width="40" height="30" as="geometry" />
        </mxCell>
        <mxCell id="1WfHpJmpJzPJUs5iyAej-101" value="Z&lt;sub&gt;w&lt;/sub&gt;" style="text;html=1;align=center;verticalAlign=middle;resizable=0;points=[];autosize=1;strokeColor=none;fillColor=none;" vertex="1" parent="1">
          <mxGeometry x="190" y="1148" width="40" height="30" as="geometry" />
        </mxCell>
        <mxCell id="1WfHpJmpJzPJUs5iyAej-102" value="X&lt;sub&gt;w&lt;/sub&gt;" style="text;html=1;align=center;verticalAlign=middle;resizable=0;points=[];autosize=1;strokeColor=none;fillColor=none;" vertex="1" parent="1">
          <mxGeometry x="230" y="1264" width="40" height="30" as="geometry" />
        </mxCell>
        <mxCell id="1WfHpJmpJzPJUs5iyAej-103" value="" style="endArrow=classic;html=1;rounded=0;" edge="1" parent="1">
          <mxGeometry width="50" height="50" relative="1" as="geometry">
            <mxPoint x="290" y="1546" as="sourcePoint" />
            <mxPoint x="370" y="1586" as="targetPoint" />
          </mxGeometry>
        </mxCell>
        <mxCell id="1WfHpJmpJzPJUs5iyAej-104" value="" style="endArrow=classic;html=1;rounded=0;" edge="1" parent="1">
          <mxGeometry width="50" height="50" relative="1" as="geometry">
            <mxPoint x="290" y="1573" as="sourcePoint" />
            <mxPoint x="370" y="1533" as="targetPoint" />
          </mxGeometry>
        </mxCell>
        <mxCell id="1WfHpJmpJzPJUs5iyAej-105" value="" style="endArrow=classic;html=1;rounded=0;" edge="1" parent="1">
          <mxGeometry width="50" height="50" relative="1" as="geometry">
            <mxPoint x="317" y="1520" as="sourcePoint" />
            <mxPoint x="317" y="1610" as="targetPoint" />
          </mxGeometry>
        </mxCell>
        <mxCell id="1WfHpJmpJzPJUs5iyAej-106" value="Z&lt;sub&gt;w&lt;/sub&gt;" style="text;html=1;align=center;verticalAlign=middle;resizable=0;points=[];autosize=1;strokeColor=none;fillColor=none;" vertex="1" parent="1">
          <mxGeometry x="360" y="1521" width="40" height="30" as="geometry" />
        </mxCell>
        <mxCell id="1WfHpJmpJzPJUs5iyAej-107" value="X&lt;sub&gt;w&lt;/sub&gt;" style="text;html=1;align=center;verticalAlign=middle;resizable=0;points=[];autosize=1;strokeColor=none;fillColor=none;" vertex="1" parent="1">
          <mxGeometry x="358" y="1573" width="40" height="30" as="geometry" />
        </mxCell>
        <mxCell id="1WfHpJmpJzPJUs5iyAej-108" value="Y&lt;sub&gt;w&lt;/sub&gt;" style="text;html=1;align=center;verticalAlign=middle;resizable=0;points=[];autosize=1;strokeColor=none;fillColor=none;" vertex="1" parent="1">
          <mxGeometry x="300" y="1601" width="40" height="30" as="geometry" />
        </mxCell>
        <mxCell id="1WfHpJmpJzPJUs5iyAej-109" value="" style="endArrow=classic;html=1;rounded=0;" edge="1" parent="1">
          <mxGeometry width="50" height="50" relative="1" as="geometry">
            <mxPoint x="290" y="1730" as="sourcePoint" />
            <mxPoint x="490" y="1730" as="targetPoint" />
          </mxGeometry>
        </mxCell>
        <mxCell id="1WfHpJmpJzPJUs5iyAej-110" value="" style="endArrow=classic;html=1;rounded=0;" edge="1" parent="1">
          <mxGeometry width="50" height="50" relative="1" as="geometry">
            <mxPoint x="300" y="1700" as="sourcePoint" />
            <mxPoint x="300" y="1770" as="targetPoint" />
          </mxGeometry>
        </mxCell>
        <mxCell id="1WfHpJmpJzPJUs5iyAej-112" value="O" style="text;html=1;align=center;verticalAlign=middle;resizable=0;points=[];autosize=1;strokeColor=none;fillColor=none;" vertex="1" parent="1">
          <mxGeometry x="278" y="1708" width="30" height="30" as="geometry" />
        </mxCell>
        <mxCell id="1WfHpJmpJzPJUs5iyAej-113" value="Y&lt;sub&gt;c&lt;/sub&gt;" style="text;html=1;align=center;verticalAlign=middle;resizable=0;points=[];autosize=1;strokeColor=none;fillColor=none;" vertex="1" parent="1">
          <mxGeometry x="292" y="1754" width="40" height="30" as="geometry" />
        </mxCell>
        <mxCell id="1WfHpJmpJzPJUs5iyAej-114" value="X&lt;sub&gt;c&lt;/sub&gt;" style="text;html=1;align=center;verticalAlign=middle;resizable=0;points=[];autosize=1;strokeColor=none;fillColor=none;" vertex="1" parent="1">
          <mxGeometry x="470" y="1728" width="40" height="30" as="geometry" />
        </mxCell>
        <mxCell id="1WfHpJmpJzPJUs5iyAej-118" value="" style="rounded=0;whiteSpace=wrap;html=1;" vertex="1" parent="1">
          <mxGeometry x="380" y="1630" width="120" height="60" as="geometry" />
        </mxCell>
        <mxCell id="1WfHpJmpJzPJUs5iyAej-121" value="" style="endArrow=classic;html=1;rounded=0;" edge="1" parent="1">
          <mxGeometry width="50" height="50" relative="1" as="geometry">
            <mxPoint x="320" y="1660" as="sourcePoint" />
            <mxPoint x="600" y="1660" as="targetPoint" />
          </mxGeometry>
        </mxCell>
        <mxCell id="1WfHpJmpJzPJUs5iyAej-122" value="" style="endArrow=classic;html=1;rounded=0;" edge="1" parent="1">
          <mxGeometry width="50" height="50" relative="1" as="geometry">
            <mxPoint x="440" y="1610" as="sourcePoint" />
            <mxPoint x="440" y="1710" as="targetPoint" />
          </mxGeometry>
        </mxCell>
        <mxCell id="1WfHpJmpJzPJUs5iyAej-123" value="" style="endArrow=none;html=1;rounded=0;" edge="1" parent="1" source="1WfHpJmpJzPJUs5iyAej-127">
          <mxGeometry width="50" height="50" relative="1" as="geometry">
            <mxPoint x="300" y="1730" as="sourcePoint" />
            <mxPoint x="554.7" y="1530" as="targetPoint" />
          </mxGeometry>
        </mxCell>
        <mxCell id="1WfHpJmpJzPJUs5iyAej-125" value="" style="shape=waypoint;sketch=0;fillStyle=solid;size=6;pointerEvents=1;points=[];fillColor=none;resizable=0;rotatable=0;perimeter=centerPerimeter;snapToPoint=1;" vertex="1" parent="1">
          <mxGeometry x="392" y="1640" width="20" height="20" as="geometry" />
        </mxCell>
        <mxCell id="1WfHpJmpJzPJUs5iyAej-127" value="" style="shape=waypoint;sketch=0;fillStyle=solid;size=6;pointerEvents=1;points=[];fillColor=none;resizable=0;rotatable=0;perimeter=centerPerimeter;snapToPoint=1;" vertex="1" parent="1">
          <mxGeometry x="540" y="1520" width="20" height="20" as="geometry" />
        </mxCell>
        <mxCell id="1WfHpJmpJzPJUs5iyAej-130" value="" style="endArrow=none;dashed=1;html=1;dashPattern=1 3;strokeWidth=2;rounded=0;exitX=0.733;exitY=0.733;exitDx=0;exitDy=0;exitPerimeter=0;entryX=0.299;entryY=0.626;entryDx=0;entryDy=0;entryPerimeter=0;" edge="1" parent="1" source="1WfHpJmpJzPJUs5iyAej-112" target="1WfHpJmpJzPJUs5iyAej-127">
          <mxGeometry width="50" height="50" relative="1" as="geometry">
            <mxPoint x="450" y="1590" as="sourcePoint" />
            <mxPoint x="500" y="1540" as="targetPoint" />
          </mxGeometry>
        </mxCell>
        <mxCell id="1WfHpJmpJzPJUs5iyAej-131" value="" style="endArrow=none;dashed=1;html=1;dashPattern=1 3;strokeWidth=2;rounded=0;" edge="1" parent="1" target="1WfHpJmpJzPJUs5iyAej-134">
          <mxGeometry width="50" height="50" relative="1" as="geometry">
            <mxPoint x="300" y="1730" as="sourcePoint" />
            <mxPoint x="550" y="1580" as="targetPoint" />
          </mxGeometry>
        </mxCell>
        <mxCell id="1WfHpJmpJzPJUs5iyAej-133" value="" style="shape=waypoint;sketch=0;fillStyle=solid;size=6;pointerEvents=1;points=[];fillColor=none;resizable=0;rotatable=0;perimeter=centerPerimeter;snapToPoint=1;" vertex="1" parent="1">
          <mxGeometry x="590" y="1570" width="20" height="20" as="geometry" />
        </mxCell>
        <mxCell id="1WfHpJmpJzPJUs5iyAej-134" value="" style="shape=waypoint;sketch=0;fillStyle=solid;size=6;pointerEvents=1;points=[];fillColor=none;resizable=0;rotatable=0;perimeter=centerPerimeter;snapToPoint=1;" vertex="1" parent="1">
          <mxGeometry x="540" y="1570" width="20" height="20" as="geometry" />
        </mxCell>
        <mxCell id="1WfHpJmpJzPJUs5iyAej-141" value="" style="endArrow=none;dashed=1;html=1;rounded=0;entryX=0.714;entryY=0.471;entryDx=0;entryDy=0;entryPerimeter=0;" edge="1" parent="1" target="1WfHpJmpJzPJUs5iyAej-133">
          <mxGeometry width="50" height="50" relative="1" as="geometry">
            <mxPoint x="550" y="1580" as="sourcePoint" />
            <mxPoint x="600" y="1530" as="targetPoint" />
          </mxGeometry>
        </mxCell>
        <mxCell id="1WfHpJmpJzPJUs5iyAej-142" value="" style="endArrow=none;dashed=1;html=1;rounded=0;" edge="1" parent="1" target="1WfHpJmpJzPJUs5iyAej-127">
          <mxGeometry width="50" height="50" relative="1" as="geometry">
            <mxPoint x="550" y="1580" as="sourcePoint" />
            <mxPoint x="600" y="1530" as="targetPoint" />
          </mxGeometry>
        </mxCell>
        <mxCell id="1WfHpJmpJzPJUs5iyAej-143" value="P(x&lt;sub&gt;c&lt;/sub&gt;,y&lt;sub&gt;c&lt;/sub&gt;,z&lt;sub&gt;c&lt;/sub&gt;)" style="text;html=1;align=center;verticalAlign=middle;resizable=0;points=[];autosize=1;strokeColor=none;fillColor=none;" vertex="1" parent="1">
          <mxGeometry x="540" y="1515" width="80" height="30" as="geometry" />
        </mxCell>
        <mxCell id="1WfHpJmpJzPJUs5iyAej-144" value="" style="endArrow=classic;html=1;rounded=0;" edge="1" parent="1">
          <mxGeometry width="50" height="50" relative="1" as="geometry">
            <mxPoint x="300" y="1730" as="sourcePoint" />
            <mxPoint x="680" y="1540" as="targetPoint" />
          </mxGeometry>
        </mxCell>
        <mxCell id="1WfHpJmpJzPJUs5iyAej-145" value="Z&lt;sub&gt;c&lt;/sub&gt;" style="text;html=1;align=center;verticalAlign=middle;resizable=0;points=[];autosize=1;strokeColor=none;fillColor=none;" vertex="1" parent="1">
          <mxGeometry x="660" y="1540" width="40" height="30" as="geometry" />
        </mxCell>
        <mxCell id="1WfHpJmpJzPJUs5iyAej-146" value="v" style="text;html=1;align=center;verticalAlign=middle;resizable=0;points=[];autosize=1;strokeColor=none;fillColor=none;" vertex="1" parent="1">
          <mxGeometry x="435" y="1688" width="30" height="30" as="geometry" />
        </mxCell>
        <mxCell id="1WfHpJmpJzPJUs5iyAej-147" value="u" style="text;html=1;align=center;verticalAlign=middle;resizable=0;points=[];autosize=1;strokeColor=none;fillColor=none;" vertex="1" parent="1">
          <mxGeometry x="585" y="1658" width="30" height="30" as="geometry" />
        </mxCell>
        <mxCell id="1WfHpJmpJzPJUs5iyAej-148" value="O&lt;sub&gt;l&lt;/sub&gt;" style="text;html=1;align=center;verticalAlign=middle;resizable=0;points=[];autosize=1;strokeColor=none;fillColor=none;" vertex="1" parent="1">
          <mxGeometry x="431" y="1656" width="40" height="30" as="geometry" />
        </mxCell>
        <mxCell id="1WfHpJmpJzPJUs5iyAej-150" value="P" style="text;html=1;align=center;verticalAlign=middle;resizable=0;points=[];autosize=1;strokeColor=none;fillColor=none;" vertex="1" parent="1">
          <mxGeometry x="379" y="1628" width="30" height="30" as="geometry" />
        </mxCell>
      </root>
    </mxGraphModel>
  </diagram>
</mxfile>
